# xmcd CD database file
#
# Track frame offsets:
#	150
#	35280
#	56139
#	89124
#	119250
#	152036
#
# Disc length: 2260 seconds
#
# Revision: 0
# Processed by: cddbd v1.5.2PL0 Copyright (c) Steve Scherf et al.
# Submitted via: CDex 1.70beta2
#
DISCID=4c08d206
DTITLE=Milt Jackson - Modern Jazz Modern Mainstream CD 095
DYEAR=2008
DGENRE=Jazz
TTITLE0=Lover
TTITLE1=Can't Help Lovin' Dat Man
TTITLE2=The Lady Is A Tramp
TTITLE3=Angel Face
TTITLE4=Sometimes I'm Happy
TTITLE5=What's New
EXTD=YEAR: 2008
EXTT0=
EXTT1=
EXTT2=
EXTT3=
EXTT4=
EXTT5=
PLAYORDER=
